<?xml version="1.0" encoding="utf-8" standalone="no"?>
<!DOCTYPE svg PUBLIC "-//W3C//DTD SVG 1.1//EN"
  "http://www.w3.org/Graphics/SVG/1.1/DTD/svg11.dtd">
<svg xmlns:xlink="http://www.w3.org/1999/xlink" width="921.6pt" height="518.4pt" viewBox="0 0 921.6 518.4" xmlns="http://www.w3.org/2000/svg" version="1.1">
 <metadata>
  <rdf:RDF xmlns:dc="http://purl.org/dc/elements/1.1/" xmlns:cc="http://creativecommons.org/ns#" xmlns:rdf="http://www.w3.org/1999/02/22-rdf-syntax-ns#">
   <cc:Work>
    <dc:type rdf:resource="http://purl.org/dc/dcmitype/StillImage"/>
    <dc:date>2026-06-12T16:47:43.231572</dc:date>
    <dc:format>image/svg+xml</dc:format>
    <dc:creator>
     <cc:Agent>
      <dc:title>Matplotlib v3.9.2, https://matplotlib.org/</dc:title>
     </cc:Agent>
    </dc:creator>
   </cc:Work>
  </rdf:RDF>
 </metadata>
 <defs>
  <style type="text/css">*{stroke-linejoin: round; stroke-linecap: butt}</style>
 </defs>
 <g id="figure_1">
  <g id="patch_1">
   <path d="M 0 518.4 
L 921.6 518.4 
L 921.6 0 
L 0 0 
z
" style="fill: #f6f4ee"/>
  </g>
  <g id="patch_2">
   <path d="M 50.688 151.8912 
L 870.912 151.8912 
Q 878.2848 151.8912 878.2848 147.744 
L 878.2848 88.128 
Q 878.2848 83.9808 870.912 83.9808 
L 50.688 83.9808 
Q 43.3152 83.9808 43.3152 88.128 
L 43.3152 147.744 
Q 43.3152 151.8912 50.688 151.8912 
z
" style="fill: #fbf9f2; stroke: #e4ded1; stroke-linejoin: miter"/>
  </g>
  <g id="patch_3">
   <path d="M 50.688 227.0592 
L 870.912 227.0592 
Q 878.2848 227.0592 878.2848 222.912 
L 878.2848 163.296 
Q 878.2848 159.1488 870.912 159.1488 
L 50.688 159.1488 
Q 43.3152 159.1488 43.3152 163.296 
L 43.3152 222.912 
Q 43.3152 227.0592 50.688 227.0592 
z
" style="fill: #fbf9f2; stroke: #e4ded1; stroke-linejoin: miter"/>
  </g>
  <g id="patch_4">
   <path d="M 50.688 302.2272 
L 870.912 302.2272 
Q 878.2848 302.2272 878.2848 298.08 
L 878.2848 238.464 
Q 878.2848 234.3168 870.912 234.3168 
L 50.688 234.3168 
Q 43.3152 234.3168 43.3152 238.464 
L 43.3152 298.08 
Q 43.3152 302.2272 50.688 302.2272 
z
" style="fill: #fbf9f2; stroke: #e4ded1; stroke-linejoin: miter"/>
  </g>
  <g id="patch_5">
   <path d="M 50.688 377.3952 
L 870.912 377.3952 
Q 878.2848 377.3952 878.2848 373.248 
L 878.2848 313.632 
Q 878.2848 309.4848 870.912 309.4848 
L 50.688 309.4848 
Q 43.3152 309.4848 43.3152 313.632 
L 43.3152 373.248 
Q 43.3152 377.3952 50.688 377.3952 
z
" style="fill: #fbf9f2; stroke: #e4ded1; stroke-linejoin: miter"/>
  </g>
  <g id="patch_6">
   <path d="M 50.688 452.5632 
L 870.912 452.5632 
Q 878.2848 452.5632 878.2848 448.416 
L 878.2848 388.8 
Q 878.2848 384.6528 870.912 384.6528 
L 50.688 384.6528 
Q 43.3152 384.6528 43.3152 388.8 
L 43.3152 448.416 
Q 43.3152 452.5632 50.688 452.5632 
z
" style="fill: #fbf9f2; stroke: #e4ded1; stroke-linejoin: miter"/>
  </g>
  <g id="text_1">
   <text style="fill: #4d4a42; font: 13.5px 'Helvetica Neue', 'Helvetica', 'Arial', 'DejaVu Sans'; text-anchor: start" x="78.336" y="116.533856" transform="rotate(-0 78.336 116.533856)">Contradicting-evidence lag</text>
  </g>
  <g id="text_2">
   <text style="fill: #8a8577; font: 10.5px 'Helvetica Neue', 'Helvetica', 'Arial', 'DejaVu Sans'; text-anchor: start" x="78.336" y="138.47205" transform="rotate(-0 78.336 138.47205)">Pentagon denial lands the same day as the Mothership claim. Loose nuke: also same-day.</text>
  </g>
  <g id="text_3">
   <text style="fill: #b04a2e; font: 700 24px 'Helvetica Neue', 'Helvetica', 'Arial', 'DejaVu Sans'; text-anchor: end" x="843.264" y="130.620375" transform="rotate(-0 843.264 130.620375)">0 hours</text>
  </g>
  <g id="text_4">
   <text style="fill: #4d4a42; font: 13.5px 'Helvetica Neue', 'Helvetica', 'Arial', 'DejaVu Sans'; text-anchor: start" x="78.336" y="191.669161" transform="rotate(-0 78.336 191.669161)">Slowest contradiction</text>
  </g>
  <g id="text_5">
   <text style="fill: #8a8577; font: 10.5px 'Helvetica Neue', 'Helvetica', 'Arial', 'DejaVu Sans'; text-anchor: start" x="78.336" y="213.681886" transform="rotate(-0 78.336 213.681886)">The mass-hysteria framing went unchallenged for 47 days. A finding about the environment, not the pipeline.</text>
  </g>
  <g id="text_6">
   <text style="fill: #b04a2e; font: 700 24px 'Helvetica Neue', 'Helvetica', 'Arial', 'DejaVu Sans'; text-anchor: end" x="843.264" y="205.788375" transform="rotate(-0 843.264 205.788375)">1,128 hours</text>
  </g>
  <g id="text_7">
   <text style="fill: #4d4a42; font: 13.5px 'Helvetica Neue', 'Helvetica', 'Arial', 'DejaVu Sans'; text-anchor: start" x="78.336" y="266.837161" transform="rotate(-0 78.336 266.837161)">Narrative-capture alerts</text>
  </g>
  <g id="text_8">
   <text style="fill: #8a8577; font: 10.5px 'Helvetica Neue', 'Helvetica', 'Arial', 'DejaVu Sans'; text-anchor: start" x="78.336" y="288.80805" transform="rotate(-0 78.336 288.80805)">All three signals converge on the Mothership: vacuum 5.5, divergence 1.20, one independent source.</text>
  </g>
  <g id="text_9">
   <text style="fill: #b04a2e; font: 700 24px 'Helvetica Neue', 'Helvetica', 'Arial', 'DejaVu Sans'; text-anchor: end" x="843.264" y="280.956375" transform="rotate(-0 843.264 280.956375)">Dec 11 + 12</text>
  </g>
  <g id="text_10">
   <text style="fill: #4d4a42; font: 13.5px 'Helvetica Neue', 'Helvetica', 'Arial', 'DejaVu Sans'; text-anchor: start" x="78.336" y="341.92395" transform="rotate(-0 78.336 341.92395)">Evidence-narrative alignment</text>
  </g>
  <g id="text_11">
   <text style="fill: #8a8577; font: 10.5px 'Helvetica Neue', 'Helvetica', 'Arial', 'DejaVu Sans'; text-anchor: start" x="78.336" y="364.017886" transform="rotate(-0 78.336 364.017886)">In 53 of 55 windows the loudest narrative is also the best-supported. The 2 misaligned windows are the interesting ones.</text>
  </g>
  <g id="text_12">
   <text style="fill: #b04a2e; font: 700 24px 'Helvetica Neue', 'Helvetica', 'Arial', 'DejaVu Sans'; text-anchor: end" x="843.264" y="356.124375" transform="rotate(-0 843.264 356.124375)">96.4%</text>
  </g>
  <g id="text_13">
   <text style="fill: #4d4a42; font: 13.5px 'Helvetica Neue', 'Helvetica', 'Arial', 'DejaVu Sans'; text-anchor: start" x="78.336" y="417.173161" transform="rotate(-0 78.336 417.173161)">Premature-closure resistance</text>
  </g>
  <g id="text_14">
   <text style="fill: #8a8577; font: 10.5px 'Helvetica Neue', 'Helvetica', 'Arial', 'DejaVu Sans'; text-anchor: start" x="78.336" y="439.19655" transform="rotate(-0 78.336 439.19655)">Mean entropy across 29 scored days. Floor 65.6%. The distribution narrows with evidence and never collapses.</text>
  </g>
  <g id="text_15">
   <text style="fill: #b04a2e; font: 700 24px 'Helvetica Neue', 'Helvetica', 'Arial', 'DejaVu Sans'; text-anchor: end" x="843.264" y="431.292375" transform="rotate(-0 843.264 431.292375)">86.6%</text>
  </g>
  <g id="text_16">
   <text style="fill: #111714; font: 700 22px 'Helvetica Neue', 'Helvetica', 'Arial', 'DejaVu Sans'; text-anchor: start" x="64.512" y="36.288" transform="rotate(-0 64.512 36.288)">Sensemaking quality, measured</text>
  </g>
  <g id="text_17">
   <text style="fill: #4d4a42; font: 13px 'Helvetica Neue', 'Helvetica', 'Arial', 'DejaVu Sans'; text-anchor: start" x="64.512" y="64.8" transform="rotate(-0 64.512 64.8)">Five evaluation results computed over the full New Jersey corpus.</text>
  </g>
  <g id="text_18">
   <text style="fill: #8a8577; font: 8.5px 'Helvetica Neue', 'Helvetica', 'Arial', 'DejaVu Sans'; text-anchor: end" x="884.736" y="505.44" transform="rotate(-0 884.736 505.44)">signals compute eval · nj-drones corpus, 2026-04-09 build · full output in PROVENANCE.md</text>
  </g>
 </g>
</svg>
