<?xml version="1.0" encoding="utf-8" standalone="no"?>
<!DOCTYPE svg PUBLIC "-//W3C//DTD SVG 1.1//EN"
  "http://www.w3.org/Graphics/SVG/1.1/DTD/svg11.dtd">
<svg xmlns:xlink="http://www.w3.org/1999/xlink" width="921.6pt" height="518.4pt" viewBox="0 0 921.6 518.4" xmlns="http://www.w3.org/2000/svg" version="1.1">
 <metadata>
  <rdf:RDF xmlns:dc="http://purl.org/dc/elements/1.1/" xmlns:cc="http://creativecommons.org/ns#" xmlns:rdf="http://www.w3.org/1999/02/22-rdf-syntax-ns#">
   <cc:Work>
    <dc:type rdf:resource="http://purl.org/dc/dcmitype/StillImage"/>
    <dc:date>2026-06-12T16:47:44.279160</dc:date>
    <dc:format>image/svg+xml</dc:format>
    <dc:creator>
     <cc:Agent>
      <dc:title>Matplotlib v3.9.2, https://matplotlib.org/</dc:title>
     </cc:Agent>
    </dc:creator>
   </cc:Work>
  </rdf:RDF>
 </metadata>
 <defs>
  <style type="text/css">*{stroke-linejoin: round; stroke-linecap: butt}</style>
 </defs>
 <g id="figure_1">
  <g id="patch_1">
   <path d="M 0 518.4 
L 921.6 518.4 
L 921.6 0 
L 0 0 
z
" style="fill: #f6f4ee"/>
  </g>
  <g id="axes_1">
   <g id="patch_2">
    <path d="M 156.672 456.192 
L 884.736 456.192 
L 884.736 93.312 
L 156.672 93.312 
z
" style="fill: #f6f4ee"/>
   </g>
   <g id="matplotlib.axis_1">
    <g id="xtick_1">
     <g id="line2d_1">
      <path d="M 186.690547 456.192 
L 186.690547 93.312 
" clip-path="url(#pf4893d6815)" style="fill: none; stroke: #c2baa6; stroke-opacity: 0.45; stroke-width: 0.9; stroke-linecap: square"/>
     </g>
     <g id="line2d_2"/>
     <g id="text_1">
      <text style="fill: #4d4a42; font: 18px 'Helvetica Neue', 'Helvetica', 'Arial', 'DejaVu Sans'; text-anchor: middle" x="186.690547" y="472.545125" transform="rotate(-0 186.690547 472.545125)">1</text>
     </g>
    </g>
    <g id="xtick_2">
     <g id="line2d_3">
      <path d="M 279.152173 456.192 
L 279.152173 93.312 
" clip-path="url(#pf4893d6815)" style="fill: none; stroke: #c2baa6; stroke-opacity: 0.45; stroke-width: 0.9; stroke-linecap: square"/>
     </g>
     <g id="line2d_4"/>
     <g id="text_2">
      <text style="fill: #4d4a42; font: 18px 'Helvetica Neue', 'Helvetica', 'Arial', 'DejaVu Sans'; text-anchor: middle" x="279.152173" y="472.545125" transform="rotate(-0 279.152173 472.545125)">3</text>
     </g>
    </g>
    <g id="xtick_3">
     <g id="line2d_5">
      <path d="M 380.481171 456.192 
L 380.481171 93.312 
" clip-path="url(#pf4893d6815)" style="fill: none; stroke: #c2baa6; stroke-opacity: 0.45; stroke-width: 0.9; stroke-linecap: square"/>
     </g>
     <g id="line2d_6"/>
     <g id="text_3">
      <text style="fill: #4d4a42; font: 18px 'Helvetica Neue', 'Helvetica', 'Arial', 'DejaVu Sans'; text-anchor: middle" x="380.481171" y="472.545125" transform="rotate(-0 380.481171 472.545125)">10</text>
     </g>
    </g>
    <g id="xtick_4">
     <g id="line2d_7">
      <path d="M 472.942797 456.192 
L 472.942797 93.312 
" clip-path="url(#pf4893d6815)" style="fill: none; stroke: #c2baa6; stroke-opacity: 0.45; stroke-width: 0.9; stroke-linecap: square"/>
     </g>
     <g id="line2d_8"/>
     <g id="text_4">
      <text style="fill: #4d4a42; font: 18px 'Helvetica Neue', 'Helvetica', 'Arial', 'DejaVu Sans'; text-anchor: middle" x="472.942797" y="472.545125" transform="rotate(-0 472.942797 472.545125)">30</text>
     </g>
    </g>
    <g id="xtick_5">
     <g id="line2d_9">
      <path d="M 574.271795 456.192 
L 574.271795 93.312 
" clip-path="url(#pf4893d6815)" style="fill: none; stroke: #c2baa6; stroke-opacity: 0.45; stroke-width: 0.9; stroke-linecap: square"/>
     </g>
     <g id="line2d_10"/>
     <g id="text_5">
      <text style="fill: #4d4a42; font: 18px 'Helvetica Neue', 'Helvetica', 'Arial', 'DejaVu Sans'; text-anchor: middle" x="574.271795" y="472.545125" transform="rotate(-0 574.271795 472.545125)">100</text>
     </g>
    </g>
    <g id="xtick_6">
     <g id="line2d_11">
      <defs>
       <path id="me8604047ac" d="M 0 0 
L 0 2 
" style="stroke: #4d4a42; stroke-width: 0.6"/>
      </defs>
      <g>
       <use xlink:href="#me8604047ac" x="156.672" y="456.192" style="fill: #4d4a42; stroke: #4d4a42; stroke-width: 0.6"/>
      </g>
     </g>
    </g>
    <g id="xtick_7">
     <g id="line2d_12">
      <g>
       <use xlink:href="#me8604047ac" x="167.910296" y="456.192" style="fill: #4d4a42; stroke: #4d4a42; stroke-width: 0.6"/>
      </g>
     </g>
    </g>
    <g id="xtick_8">
     <g id="line2d_13">
      <g>
       <use xlink:href="#me8604047ac" x="177.823175" y="456.192" style="fill: #4d4a42; stroke: #4d4a42; stroke-width: 0.6"/>
      </g>
     </g>
    </g>
    <g id="xtick_9">
     <g id="line2d_14">
      <g>
       <use xlink:href="#me8604047ac" x="245.027338" y="456.192" style="fill: #4d4a42; stroke: #4d4a42; stroke-width: 0.6"/>
      </g>
     </g>
    </g>
    <g id="xtick_10">
     <g id="line2d_15">
      <g>
       <use xlink:href="#me8604047ac" x="303.364129" y="456.192" style="fill: #4d4a42; stroke: #4d4a42; stroke-width: 0.6"/>
      </g>
     </g>
    </g>
    <g id="xtick_11">
     <g id="line2d_16">
      <g>
       <use xlink:href="#me8604047ac" x="322.144381" y="456.192" style="fill: #4d4a42; stroke: #4d4a42; stroke-width: 0.6"/>
      </g>
     </g>
    </g>
    <g id="xtick_12">
     <g id="line2d_17">
      <g>
       <use xlink:href="#me8604047ac" x="337.488964" y="456.192" style="fill: #4d4a42; stroke: #4d4a42; stroke-width: 0.6"/>
      </g>
     </g>
    </g>
    <g id="xtick_13">
     <g id="line2d_18">
      <g>
       <use xlink:href="#me8604047ac" x="350.462624" y="456.192" style="fill: #4d4a42; stroke: #4d4a42; stroke-width: 0.6"/>
      </g>
     </g>
    </g>
    <g id="xtick_14">
     <g id="line2d_19">
      <g>
       <use xlink:href="#me8604047ac" x="361.700919" y="456.192" style="fill: #4d4a42; stroke: #4d4a42; stroke-width: 0.6"/>
      </g>
     </g>
    </g>
    <g id="xtick_15">
     <g id="line2d_20">
      <g>
       <use xlink:href="#me8604047ac" x="371.613799" y="456.192" style="fill: #4d4a42; stroke: #4d4a42; stroke-width: 0.6"/>
      </g>
     </g>
    </g>
    <g id="xtick_16">
     <g id="line2d_21">
      <g>
       <use xlink:href="#me8604047ac" x="438.817962" y="456.192" style="fill: #4d4a42; stroke: #4d4a42; stroke-width: 0.6"/>
      </g>
     </g>
    </g>
    <g id="xtick_17">
     <g id="line2d_22">
      <g>
       <use xlink:href="#me8604047ac" x="497.154752" y="456.192" style="fill: #4d4a42; stroke: #4d4a42; stroke-width: 0.6"/>
      </g>
     </g>
    </g>
    <g id="xtick_18">
     <g id="line2d_23">
      <g>
       <use xlink:href="#me8604047ac" x="515.935004" y="456.192" style="fill: #4d4a42; stroke: #4d4a42; stroke-width: 0.6"/>
      </g>
     </g>
    </g>
    <g id="xtick_19">
     <g id="line2d_24">
      <g>
       <use xlink:href="#me8604047ac" x="531.279587" y="456.192" style="fill: #4d4a42; stroke: #4d4a42; stroke-width: 0.6"/>
      </g>
     </g>
    </g>
    <g id="xtick_20">
     <g id="line2d_25">
      <g>
       <use xlink:href="#me8604047ac" x="544.253248" y="456.192" style="fill: #4d4a42; stroke: #4d4a42; stroke-width: 0.6"/>
      </g>
     </g>
    </g>
    <g id="xtick_21">
     <g id="line2d_26">
      <g>
       <use xlink:href="#me8604047ac" x="555.491543" y="456.192" style="fill: #4d4a42; stroke: #4d4a42; stroke-width: 0.6"/>
      </g>
     </g>
    </g>
    <g id="xtick_22">
     <g id="line2d_27">
      <g>
       <use xlink:href="#me8604047ac" x="565.404422" y="456.192" style="fill: #4d4a42; stroke: #4d4a42; stroke-width: 0.6"/>
      </g>
     </g>
    </g>
    <g id="xtick_23">
     <g id="line2d_28">
      <g>
       <use xlink:href="#me8604047ac" x="632.608586" y="456.192" style="fill: #4d4a42; stroke: #4d4a42; stroke-width: 0.6"/>
      </g>
     </g>
    </g>
    <g id="xtick_24">
     <g id="line2d_29">
      <g>
       <use xlink:href="#me8604047ac" x="666.733421" y="456.192" style="fill: #4d4a42; stroke: #4d4a42; stroke-width: 0.6"/>
      </g>
     </g>
    </g>
    <g id="xtick_25">
     <g id="line2d_30">
      <g>
       <use xlink:href="#me8604047ac" x="690.945376" y="456.192" style="fill: #4d4a42; stroke: #4d4a42; stroke-width: 0.6"/>
      </g>
     </g>
    </g>
    <g id="xtick_26">
     <g id="line2d_31">
      <g>
       <use xlink:href="#me8604047ac" x="709.725628" y="456.192" style="fill: #4d4a42; stroke: #4d4a42; stroke-width: 0.6"/>
      </g>
     </g>
    </g>
    <g id="xtick_27">
     <g id="line2d_32">
      <g>
       <use xlink:href="#me8604047ac" x="725.070211" y="456.192" style="fill: #4d4a42; stroke: #4d4a42; stroke-width: 0.6"/>
      </g>
     </g>
    </g>
    <g id="xtick_28">
     <g id="line2d_33">
      <g>
       <use xlink:href="#me8604047ac" x="738.043871" y="456.192" style="fill: #4d4a42; stroke: #4d4a42; stroke-width: 0.6"/>
      </g>
     </g>
    </g>
    <g id="xtick_29">
     <g id="line2d_34">
      <g>
       <use xlink:href="#me8604047ac" x="749.282167" y="456.192" style="fill: #4d4a42; stroke: #4d4a42; stroke-width: 0.6"/>
      </g>
     </g>
    </g>
    <g id="xtick_30">
     <g id="line2d_35">
      <g>
       <use xlink:href="#me8604047ac" x="759.195046" y="456.192" style="fill: #4d4a42; stroke: #4d4a42; stroke-width: 0.6"/>
      </g>
     </g>
    </g>
    <g id="xtick_31">
     <g id="line2d_36">
      <g>
       <use xlink:href="#me8604047ac" x="826.399209" y="456.192" style="fill: #4d4a42; stroke: #4d4a42; stroke-width: 0.6"/>
      </g>
     </g>
    </g>
    <g id="xtick_32">
     <g id="line2d_37">
      <g>
       <use xlink:href="#me8604047ac" x="860.524044" y="456.192" style="fill: #4d4a42; stroke: #4d4a42; stroke-width: 0.6"/>
      </g>
     </g>
    </g>
    <g id="xtick_33">
     <g id="line2d_38">
      <g>
       <use xlink:href="#me8604047ac" x="884.736" y="456.192" style="fill: #4d4a42; stroke: #4d4a42; stroke-width: 0.6"/>
      </g>
     </g>
    </g>
    <g id="text_6">
     <text style="fill: #4d4a42; font: 16.5px 'Helvetica Neue', 'Helvetica', 'Arial', 'DejaVu Sans'; text-anchor: middle" x="520.704" y="492.152156" transform="rotate(-0 520.704 492.152156)">Sources (log scale)</text>
    </g>
   </g>
   <g id="matplotlib.axis_2">
    <g id="ytick_1">
     <g id="line2d_39"/>
     <g id="text_7">
      <text style="fill: #4d4a42; font: 18px 'Helvetica Neue', 'Helvetica', 'Arial', 'DejaVu Sans'; text-anchor: end" x="153.172" y="446.124017" transform="rotate(-0 153.172 446.124017)">Loose nuke</text>
     </g>
    </g>
    <g id="ytick_2">
     <g id="line2d_40"/>
     <g id="text_8">
      <text style="fill: #4d4a42; font: 18px 'Helvetica Neue', 'Helvetica', 'Arial', 'DejaVu Sans'; text-anchor: end" x="153.172" y="380.29771" transform="rotate(-0 153.172 380.29771)">Secret test flights</text>
     </g>
    </g>
    <g id="ytick_3">
     <g id="line2d_41"/>
     <g id="text_9">
      <text style="fill: #4d4a42; font: 18px 'Helvetica Neue', 'Helvetica', 'Arial', 'DejaVu Sans'; text-anchor: end" x="153.172" y="314.167653" transform="rotate(-0 153.172 314.167653)">Mass hysteria</text>
     </g>
    </g>
    <g id="ytick_4">
     <g id="line2d_42"/>
     <g id="text_10">
      <text style="fill: #4d4a42; font: 18px 'Helvetica Neue', 'Helvetica', 'Arial', 'DejaVu Sans'; text-anchor: end" x="153.172" y="248.189472" transform="rotate(-0 153.172 248.189472)">Iranian Mothership</text>
     </g>
    </g>
    <g id="ytick_5">
     <g id="line2d_43"/>
     <g id="text_11">
      <text style="fill: #4d4a42; font: 18px 'Helvetica Neue', 'Helvetica', 'Arial', 'DejaVu Sans'; text-anchor: end" x="153.172" y="182.21129" transform="rotate(-0 153.172 182.21129)">UAP</text>
     </g>
    </g>
    <g id="ytick_6">
     <g id="line2d_44"/>
     <g id="text_12">
      <text style="fill: #4d4a42; font: 18px 'Helvetica Neue', 'Helvetica', 'Arial', 'DejaVu Sans'; text-anchor: end" x="153.172" y="116.233108" transform="rotate(-0 153.172 116.233108)">Legitimate drones</text>
     </g>
    </g>
   </g>
   <g id="line2d_45">
    <path d="M 279.152173 439.697455 
L 245.027338 439.697455 
" clip-path="url(#pf4893d6815)" style="fill: none; stroke: #e4ded1; stroke-width: 7.5; stroke-linecap: round"/>
   </g>
   <g id="line2d_46">
    <path d="M 186.690547 373.719273 
L 279.152173 373.719273 
" clip-path="url(#pf4893d6815)" style="fill: none; stroke: #e4ded1; stroke-width: 7.5; stroke-linecap: round"/>
   </g>
   <g id="line2d_47">
    <path d="M 186.690547 307.741091 
L 303.364129 307.741091 
" clip-path="url(#pf4893d6815)" style="fill: none; stroke: #e4ded1; stroke-width: 7.5; stroke-linecap: round"/>
   </g>
   <g id="line2d_48">
    <path d="M 186.690547 241.762909 
L 337.488964 241.762909 
" clip-path="url(#pf4893d6815)" style="fill: none; stroke: #e4ded1; stroke-width: 7.5; stroke-linecap: round"/>
   </g>
   <g id="line2d_49">
    <path d="M 322.144381 175.784727 
L 337.488964 175.784727 
" clip-path="url(#pf4893d6815)" style="fill: none; stroke: #e4ded1; stroke-width: 7.5; stroke-linecap: round"/>
   </g>
   <g id="line2d_50">
    <path d="M 475.70246 109.806545 
L 578.378082 109.806545 
" clip-path="url(#pf4893d6815)" style="fill: none; stroke: #e4ded1; stroke-width: 7.5; stroke-linecap: round"/>
   </g>
   <g id="patch_3">
    <path d="M 156.672 456.192 
L 884.736 456.192 
" style="fill: none; stroke: #e4ded1; stroke-width: 0.8; stroke-linejoin: miter; stroke-linecap: square"/>
   </g>
   <g id="PathCollection_1">
    <defs>
     <path id="mbade75f259" d="M 0 8.551316 
C 2.267835 8.551316 4.443092 7.650295 6.046693 6.046693 
C 7.650295 4.443092 8.551316 2.267835 8.551316 0 
C 8.551316 -2.267835 7.650295 -4.443092 6.046693 -6.046693 
C 4.443092 -7.650295 2.267835 -8.551316 0 -8.551316 
C -2.267835 -8.551316 -4.443092 -7.650295 -6.046693 -6.046693 
C -7.650295 -4.443092 -8.551316 -2.267835 -8.551316 0 
C -8.551316 2.267835 -7.650295 4.443092 -6.046693 6.046693 
C -4.443092 7.650295 -2.267835 8.551316 0 8.551316 
z
" style="stroke: #8a8577"/>
    </defs>
    <g clip-path="url(#pf4893d6815)">
     <use xlink:href="#mbade75f259" x="245.027338" y="439.697455" style="fill: #8a8577; stroke: #8a8577"/>
    </g>
   </g>
   <g id="text_13">
    <text style="fill: #4d4a42; font: 17.25px 'Helvetica Neue', 'Helvetica', 'Arial', 'DejaVu Sans'; text-anchor: start" x="303.152173" y="444.302396" transform="rotate(-0 303.152173 444.302396)">2 docs → 3 independent (0.7×)</text>
   </g>
   <g id="PathCollection_2">
    <g clip-path="url(#pf4893d6815)">
     <use xlink:href="#mbade75f259" x="279.152173" y="373.719273" style="fill: #8a8577; stroke: #8a8577"/>
    </g>
   </g>
   <g id="text_14">
    <text style="fill: #4d4a42; font: 17.25px 'Helvetica Neue', 'Helvetica', 'Arial', 'DejaVu Sans'; text-anchor: start" x="303.152173" y="378.324214" transform="rotate(-0 303.152173 378.324214)">3 docs → 1 independent (3.0×)</text>
   </g>
   <g id="PathCollection_3">
    <g clip-path="url(#pf4893d6815)">
     <use xlink:href="#mbade75f259" x="303.364129" y="307.741091" style="fill: #8a8577; stroke: #8a8577"/>
    </g>
   </g>
   <g id="text_15">
    <text style="fill: #4d4a42; font: 17.25px 'Helvetica Neue', 'Helvetica', 'Arial', 'DejaVu Sans'; text-anchor: start" x="327.364129" y="312.346032" transform="rotate(-0 327.364129 312.346032)">4 docs → 1 independent (4.0×)</text>
   </g>
   <g id="PathCollection_4">
    <g clip-path="url(#pf4893d6815)">
     <use xlink:href="#mbade75f259" x="337.488964" y="241.762909" style="fill: #8a8577; stroke: #8a8577"/>
    </g>
   </g>
   <g id="text_16">
    <text style="fill: #b04a2e; font: 700 17.25px 'Helvetica Neue', 'Helvetica', 'Arial', 'DejaVu Sans'; text-anchor: start" x="361.488964" y="246.36785" transform="rotate(-0 361.488964 246.36785)">6 docs → 1 independent (6.0×)</text>
   </g>
   <g id="PathCollection_5">
    <g clip-path="url(#pf4893d6815)">
     <use xlink:href="#mbade75f259" x="337.488964" y="175.784727" style="fill: #8a8577; stroke: #8a8577"/>
    </g>
   </g>
   <g id="text_17">
    <text style="fill: #4d4a42; font: 17.25px 'Helvetica Neue', 'Helvetica', 'Arial', 'DejaVu Sans'; text-anchor: start" x="361.488964" y="180.389669" transform="rotate(-0 361.488964 180.389669)">6 docs → 5 independent (1.2×)</text>
   </g>
   <g id="PathCollection_6">
    <g clip-path="url(#pf4893d6815)">
     <use xlink:href="#mbade75f259" x="578.378082" y="109.806545" style="fill: #8a8577; stroke: #8a8577"/>
    </g>
   </g>
   <g id="text_18">
    <text style="fill: #4d4a42; font: 17.25px 'Helvetica Neue', 'Helvetica', 'Arial', 'DejaVu Sans'; text-anchor: start" x="602.378082" y="114.411487" transform="rotate(-0 602.378082 114.411487)">105 docs → 31 independent (3.4×)</text>
   </g>
   <g id="PathCollection_7">
    <defs>
     <path id="m8dcf4a6597" d="M 0 9.185587 
C 2.436046 9.185587 4.772646 8.217735 6.495191 6.495191 
C 8.217735 4.772646 9.185587 2.436046 9.185587 0 
C 9.185587 -2.436046 8.217735 -4.772646 6.495191 -6.495191 
C 4.772646 -8.217735 2.436046 -9.185587 0 -9.185587 
C -2.436046 -9.185587 -4.772646 -8.217735 -6.495191 -6.495191 
C -8.217735 -4.772646 -9.185587 -2.436046 -9.185587 0 
C -9.185587 2.436046 -8.217735 4.772646 -6.495191 6.495191 
C -4.772646 8.217735 -2.436046 9.185587 0 9.185587 
z
" style="stroke: #5c7a6a"/>
    </defs>
    <g clip-path="url(#pf4893d6815)">
     <use xlink:href="#m8dcf4a6597" x="279.152173" y="439.697455" style="fill: #5c7a6a; stroke: #5c7a6a"/>
    </g>
   </g>
   <g id="PathCollection_8">
    <g clip-path="url(#pf4893d6815)">
     <use xlink:href="#m8dcf4a6597" x="186.690547" y="373.719273" style="fill: #5c7a6a; stroke: #5c7a6a"/>
    </g>
   </g>
   <g id="PathCollection_9">
    <g clip-path="url(#pf4893d6815)">
     <use xlink:href="#m8dcf4a6597" x="186.690547" y="307.741091" style="fill: #5c7a6a; stroke: #5c7a6a"/>
    </g>
   </g>
   <g id="PathCollection_10">
    <defs>
     <path id="mf2765e2137" d="M 0 9.185587 
C 2.436046 9.185587 4.772646 8.217735 6.495191 6.495191 
C 8.217735 4.772646 9.185587 2.436046 9.185587 0 
C 9.185587 -2.436046 8.217735 -4.772646 6.495191 -6.495191 
C 4.772646 -8.217735 2.436046 -9.185587 0 -9.185587 
C -2.436046 -9.185587 -4.772646 -8.217735 -6.495191 -6.495191 
C -8.217735 -4.772646 -9.185587 -2.436046 -9.185587 0 
C -9.185587 2.436046 -8.217735 4.772646 -6.495191 6.495191 
C -4.772646 8.217735 -2.436046 9.185587 0 9.185587 
z
" style="stroke: #b04a2e"/>
    </defs>
    <g clip-path="url(#pf4893d6815)">
     <use xlink:href="#mf2765e2137" x="186.690547" y="241.762909" style="fill: #b04a2e; stroke: #b04a2e"/>
    </g>
   </g>
   <g id="PathCollection_11">
    <g clip-path="url(#pf4893d6815)">
     <use xlink:href="#m8dcf4a6597" x="322.144381" y="175.784727" style="fill: #5c7a6a; stroke: #5c7a6a"/>
    </g>
   </g>
   <g id="PathCollection_12">
    <g clip-path="url(#pf4893d6815)">
     <use xlink:href="#m8dcf4a6597" x="475.70246" y="109.806545" style="fill: #5c7a6a; stroke: #5c7a6a"/>
    </g>
   </g>
   <g id="legend_1">
    <g id="line2d_51">
     <defs>
      <path id="m725aa193f6" d="M 0 6.75 
C 1.790121 6.75 3.507164 6.038777 4.772971 4.772971 
C 6.038777 3.507164 6.75 1.790121 6.75 0 
C 6.75 -1.790121 6.038777 -3.507164 4.772971 -4.772971 
C 3.507164 -6.038777 1.790121 -6.75 0 -6.75 
C -1.790121 -6.75 -3.507164 -6.038777 -4.772971 -4.772971 
C -6.038777 -3.507164 -6.75 -1.790121 -6.75 0 
C -6.75 1.790121 -6.038777 3.507164 -4.772971 4.772971 
C -3.507164 6.038777 -1.790121 6.75 0 6.75 
z
" style="stroke: #8a8577"/>
     </defs>
     <g>
      <use xlink:href="#m725aa193f6" x="600.084281" y="388.25782" style="fill: #8a8577; stroke: #8a8577"/>
     </g>
    </g>
    <g id="text_19">
     <text style="fill: #111714; font: 15.75px 'Helvetica Neue', 'Helvetica', 'Arial', 'DejaVu Sans'; text-anchor: start" x="628.434281" y="393.77032" transform="rotate(-0 628.434281 393.77032)">Documents carrying the narrative</text>
    </g>
    <g id="line2d_52">
     <defs>
      <path id="mb56507cfd7" d="M 0 6.75 
C 1.790121 6.75 3.507164 6.038777 4.772971 4.772971 
C 6.038777 3.507164 6.75 1.790121 6.75 0 
C 6.75 -1.790121 6.038777 -3.507164 4.772971 -4.772971 
C 3.507164 -6.038777 1.790121 -6.75 0 -6.75 
C -1.790121 -6.75 -3.507164 -6.038777 -4.772971 -4.772971 
C -6.038777 -3.507164 -6.75 -1.790121 -6.75 0 
C -6.75 1.790121 -6.038777 3.507164 -4.772971 4.772971 
C -3.507164 6.038777 -1.790121 6.75 0 6.75 
z
" style="stroke: #5c7a6a"/>
     </defs>
     <g>
      <use xlink:href="#mb56507cfd7" x="600.084281" y="410.672039" style="fill: #5c7a6a; stroke: #5c7a6a"/>
     </g>
    </g>
    <g id="text_20">
     <text style="fill: #111714; font: 15.75px 'Helvetica Neue', 'Helvetica', 'Arial', 'DejaVu Sans'; text-anchor: start" x="628.434281" y="416.184539" transform="rotate(-0 628.434281 416.184539)">Independent origins</text>
    </g>
    <g id="line2d_53">
     <defs>
      <path id="mca89d68025" d="M 0 6.75 
C 1.790121 6.75 3.507164 6.038777 4.772971 4.772971 
C 6.038777 3.507164 6.75 1.790121 6.75 0 
C 6.75 -1.790121 6.038777 -3.507164 4.772971 -4.772971 
C 3.507164 -6.038777 1.790121 -6.75 0 -6.75 
C -1.790121 -6.75 -3.507164 -6.038777 -4.772971 -4.772971 
C -6.038777 -3.507164 -6.75 -1.790121 -6.75 0 
C -6.75 1.790121 -6.038777 3.507164 -4.772971 4.772971 
C -3.507164 6.038777 -1.790121 6.75 0 6.75 
z
" style="stroke: #b04a2e"/>
     </defs>
     <g>
      <use xlink:href="#mca89d68025" x="600.084281" y="433.211766" style="fill: #b04a2e; stroke: #b04a2e"/>
     </g>
    </g>
    <g id="text_21">
     <text style="fill: #111714; font: 15.75px 'Helvetica Neue', 'Helvetica', 'Arial', 'DejaVu Sans'; text-anchor: start" x="628.434281" y="438.724266" transform="rotate(-0 628.434281 438.724266)">Independent origins, echo-flagged</text>
    </g>
   </g>
  </g>
  <g id="text_22">
   <text style="fill: #111714; font: 700 33px 'Helvetica Neue', 'Helvetica', 'Arial', 'DejaVu Sans'; text-anchor: start" x="64.512" y="36.288" transform="rotate(-0 64.512 36.288)">Six outlets, one source</text>
  </g>
  <g id="text_23">
   <text style="fill: #4d4a42; font: 19.5px 'Helvetica Neue', 'Helvetica', 'Arial', 'DejaVu Sans'; text-anchor: start" x="64.512" y="64.8" transform="rotate(-0 64.512 64.8)">Six outlets carried the Mothership. All six trace to one statement.</text>
  </g>
  <g id="text_24">
   <text style="fill: #8a8577; font: 12.75px 'Helvetica Neue', 'Helvetica', 'Arial', 'DejaVu Sans'; text-anchor: end" x="884.736" y="505.44" transform="rotate(-0 884.736 505.44)">signal_independence · nj-drones corpus, 2026-04-09 build · query in PROVENANCE.md</text>
  </g>
 </g>
 <defs>
  <clipPath id="pf4893d6815">
   <rect x="156.672" y="93.312" width="728.064" height="362.88"/>
  </clipPath>
 </defs>
</svg>
